{"title":"Roosa Panter 2 2009  DVDRIP EESTI SUB","uid":8921002,"size":1448373264,"categoryP":"video","categoryS":"movies","magnet":"?xt=urn:btih:022070af6af94445b04f1bc7a51b4d7fd919e672&amp;dn=Roosa+Panter+2+2009++DVDRIP+EESTI+SUB&amp;tr=udp%3A%2F%2Ftracker.openbittorrent.com%3A80&amp;tr=udp%3A%2F%2Fopen.demonii.com%3A1337&amp;tr=udp%3A%2F%2Ftracker.coppersurfer.tk%3A6969&amp;tr=udp%3A%2F%2Fexodus.desync.com%3A6969","seeders":1,"leechers":0,"uploader":"immri","files":1,"time":1379254267,"description":"Format                                   : AVI\nFormat/Info                              : Audio Video Interleave\nFormat profile                           : OpenDML\nFile size                                : 1.35 GiB\nDuration                                 : 1h 28mn\nOverall bit rate                         : 2 188 Kbps\nWriting application                      : Lavf52.13.0\n\nVideo\nID                                       : 0\nFormat                                   : MPEG-4 Visual\nFormat profile                           : Advanced Simple@L1\nFormat settings, BVOP                    : 2\nFormat settings, QPel                    : No\nFormat settings, GMC                     : No warppoints\nFormat settings, Matrix                  : Default (H.263)\nCodec ID                                 : DX50\nCodec ID/Hint                            : DivX 5\nDuration                                 : 1h 28mn\nBit rate                                 : 2 046 Kbps\nWidth                                    : 720 pixels\nHeight                                   : 576 pixels\nDisplay aspect ratio                     : 16:9\nFrame rate                               : 25.000 fps\nStandard                                 : PAL\nColor space                              : YUV\nChroma subsampling                       : 4:2:0\nBit depth                                : 8 bits\nScan type                                : Progressive\nCompression mode                         : Lossy\nBits/(Pixel*Frame)                       : 0.197\nStream size                              : 1.26 GiB (93%)\nWriting library                          : Lavc51.54.0\n\nAudio\nID                                       : 1\nFormat                                   : MPEG Audio\nFormat version                           : Version 1\nFormat profile                           : Layer 3\nMode                                     : Joint stereo\nMode extension                           : MS Stereo\nCodec ID                                 : 55\nCodec ID/Hint                            : MP3\nDuration                                 : 1h 28mn\nBit rate mode                            : Constant\nBit rate                                 : 128 Kbps\nChannel(s)                               : 2 channels\nSampling rate                            : 44.1 KHz\nCompression mode                         : Lossy\nStream size                              : 80.8 MiB (6%)\nAlignment                                : Aligned on interleaves\nInterleave, duration                     : 26 ms (0.65 video frame)\n\n","torrent":{"xt":"urn:btih:022070af6af94445b04f1bc7a51b4d7fd919e672","amp;dn":"Roosa+Panter+2+2009++DVDRIP+EESTI+SUB","amp;tr":["udp%3A%2F%2Ftracker.openbittorrent.com%3A80","udp%3A%2F%2Fopen.demonii.com%3A1337","udp%3A%2F%2Ftracker.coppersurfer.tk%3A6969","udp%3A%2F%2Fexodus.desync.com%3A6969"],"infoHash":"022070af6af94445b04f1bc7a51b4d7fd919e672","infoHashBuffer":{"type":"Buffer","data":[2,32,112,175,106,249,68,69,176,79,27,199,165,27,77,127,217,25,230,114]},"announce":[],"urlList":[]}}